<svg xmlns="http://www.w3.org/2000/svg" width="460" height="403" viewBox="0 0 460 403" font-family="-apple-system,Segoe UI,Helvetica,Arial,sans-serif">
<defs><linearGradient id="g" x1="0" x2="1"><stop offset="0" stop-color="#2ea043"/><stop offset="1" stop-color="#56d364"/></linearGradient></defs>
<rect width="460" height="403" rx="8" fill="#ffffff"/>
<text x="230" y="32" text-anchor="middle" font-size="16" font-weight="600" fill="#1f2328">Translation status: about 95% of the game's text is in English</text>
<rect x="20" y="50" width="420" height="14" rx="7" fill="#d0d7de"/>
<rect x="20" y="50" width="399.0" height="14" rx="7" fill="url(#g)"/>
<rect x="97" y="94" width="22" height="22" rx="3" fill="#2ea043"/>
<rect x="124" y="94" width="22" height="22" rx="3" fill="#2ea043"/>
<rect x="151" y="94" width="22" height="22" rx="3" fill="#2ea043"/>
<rect x="178" y="94" width="22" height="22" rx="3" fill="#2ea043"/>
<rect x="205" y="94" width="22" height="22" rx="3" fill="#2ea043"/>
<rect x="232" y="94" width="22" height="22" rx="3" fill="#2ea043"/>
<rect x="259" y="94" width="22" height="22" rx="3" fill="#2ea043"/>
<rect x="286" y="94" width="22" height="22" rx="3" fill="#2ea043"/>
<rect x="313" y="94" width="22" height="22" rx="3" fill="#2ea043"/>
<rect x="340" y="94" width="22" height="22" rx="3" fill="#2ea043"/>
<rect x="97" y="121" width="22" height="22" rx="3" fill="#2ea043"/>
<rect x="124" y="121" width="22" height="22" rx="3" fill="#2ea043"/>
<rect x="151" y="121" width="22" height="22" rx="3" fill="#2ea043"/>
<rect x="178" y="121" width="22" height="22" rx="3" fill="#2ea043"/>
<rect x="205" y="121" width="22" height="22" rx="3" fill="#2ea043"/>
<rect x="232" y="121" width="22" height="22" rx="3" fill="#2ea043"/>
<rect x="259" y="121" width="22" height="22" rx="3" fill="#2ea043"/>
<rect x="286" y="121" width="22" height="22" rx="3" fill="#2ea043"/>
<rect x="313" y="121" width="22" height="22" rx="3" fill="#2ea043"/>
<rect x="340" y="121" width="22" height="22" rx="3" fill="#2ea043"/>
<rect x="97" y="148" width="22" height="22" rx="3" fill="#2ea043"/>
<rect x="124" y="148" width="22" height="22" rx="3" fill="#2ea043"/>
<rect x="151" y="148" width="22" height="22" rx="3" fill="#2ea043"/>
<rect x="178" y="148" width="22" height="22" rx="3" fill="#2ea043"/>
<rect x="205" y="148" width="22" height="22" rx="3" fill="#2ea043"/>
<rect x="232" y="148" width="22" height="22" rx="3" fill="#2ea043"/>
<rect x="259" y="148" width="22" height="22" rx="3" fill="#2ea043"/>
<rect x="286" y="148" width="22" height="22" rx="3" fill="#2ea043"/>
<rect x="313" y="148" width="22" height="22" rx="3" fill="#2ea043"/>
<rect x="340" y="148" width="22" height="22" rx="3" fill="#2ea043"/>
<rect x="97" y="175" width="22" height="22" rx="3" fill="#2ea043"/>
<rect x="124" y="175" width="22" height="22" rx="3" fill="#2ea043"/>
<rect x="151" y="175" width="22" height="22" rx="3" fill="#2ea043"/>
<rect x="178" y="175" width="22" height="22" rx="3" fill="#2ea043"/>
<rect x="205" y="175" width="22" height="22" rx="3" fill="#2ea043"/>
<rect x="232" y="175" width="22" height="22" rx="3" fill="#2ea043"/>
<rect x="259" y="175" width="22" height="22" rx="3" fill="#2ea043"/>
<rect x="286" y="175" width="22" height="22" rx="3" fill="#2ea043"/>
<rect x="313" y="175" width="22" height="22" rx="3" fill="#2ea043"/>
<rect x="340" y="175" width="22" height="22" rx="3" fill="#2ea043"/>
<rect x="97" y="202" width="22" height="22" rx="3" fill="#2ea043"/>
<rect x="124" y="202" width="22" height="22" rx="3" fill="#2ea043"/>
<rect x="151" y="202" width="22" height="22" rx="3" fill="#2ea043"/>
<rect x="178" y="202" width="22" height="22" rx="3" fill="#2ea043"/>
<rect x="205" y="202" width="22" height="22" rx="3" fill="#2ea043"/>
<rect x="232" y="202" width="22" height="22" rx="3" fill="#2ea043"/>
<rect x="259" y="202" width="22" height="22" rx="3" fill="#2ea043"/>
<rect x="286" y="202" width="22" height="22" rx="3" fill="#2ea043"/>
<rect x="313" y="202" width="22" height="22" rx="3" fill="#2ea043"/>
<rect x="340" y="202" width="22" height="22" rx="3" fill="#2ea043"/>
<rect x="97" y="229" width="22" height="22" rx="3" fill="#2ea043"/>
<rect x="124" y="229" width="22" height="22" rx="3" fill="#2ea043"/>
<rect x="151" y="229" width="22" height="22" rx="3" fill="#2ea043"/>
<rect x="178" y="229" width="22" height="22" rx="3" fill="#2ea043"/>
<rect x="205" y="229" width="22" height="22" rx="3" fill="#2ea043"/>
<rect x="232" y="229" width="22" height="22" rx="3" fill="#2ea043"/>
<rect x="259" y="229" width="22" height="22" rx="3" fill="#2ea043"/>
<rect x="286" y="229" width="22" height="22" rx="3" fill="#2ea043"/>
<rect x="313" y="229" width="22" height="22" rx="3" fill="#2ea043"/>
<rect x="340" y="229" width="22" height="22" rx="3" fill="#2ea043"/>
<rect x="97" y="256" width="22" height="22" rx="3" fill="#2ea043"/>
<rect x="124" y="256" width="22" height="22" rx="3" fill="#2ea043"/>
<rect x="151" y="256" width="22" height="22" rx="3" fill="#2ea043"/>
<rect x="178" y="256" width="22" height="22" rx="3" fill="#2ea043"/>
<rect x="205" y="256" width="22" height="22" rx="3" fill="#2ea043"/>
<rect x="232" y="256" width="22" height="22" rx="3" fill="#2ea043"/>
<rect x="259" y="256" width="22" height="22" rx="3" fill="#2ea043"/>
<rect x="286" y="256" width="22" height="22" rx="3" fill="#2ea043"/>
<rect x="313" y="256" width="22" height="22" rx="3" fill="#2ea043"/>
<rect x="340" y="256" width="22" height="22" rx="3" fill="#2ea043"/>
<rect x="97" y="283" width="22" height="22" rx="3" fill="#2ea043"/>
<rect x="124" y="283" width="22" height="22" rx="3" fill="#2ea043"/>
<rect x="151" y="283" width="22" height="22" rx="3" fill="#2ea043"/>
<rect x="178" y="283" width="22" height="22" rx="3" fill="#2ea043"/>
<rect x="205" y="283" width="22" height="22" rx="3" fill="#2ea043"/>
<rect x="232" y="283" width="22" height="22" rx="3" fill="#2ea043"/>
<rect x="259" y="283" width="22" height="22" rx="3" fill="#2ea043"/>
<rect x="286" y="283" width="22" height="22" rx="3" fill="#2ea043"/>
<rect x="313" y="283" width="22" height="22" rx="3" fill="#2ea043"/>
<rect x="340" y="283" width="22" height="22" rx="3" fill="#2ea043"/>
<rect x="97" y="310" width="22" height="22" rx="3" fill="#2ea043"/>
<rect x="124" y="310" width="22" height="22" rx="3" fill="#2ea043"/>
<rect x="151" y="310" width="22" height="22" rx="3" fill="#2ea043"/>
<rect x="178" y="310" width="22" height="22" rx="3" fill="#2ea043"/>
<rect x="205" y="310" width="22" height="22" rx="3" fill="#2ea043"/>
<rect x="232" y="310" width="22" height="22" rx="3" fill="#2ea043"/>
<rect x="259" y="310" width="22" height="22" rx="3" fill="#2ea043"/>
<rect x="286" y="310" width="22" height="22" rx="3" fill="#2ea043"/>
<rect x="313" y="310" width="22" height="22" rx="3" fill="#2ea043"/>
<rect x="340" y="310" width="22" height="22" rx="3" fill="#2ea043"/>
<rect x="97" y="337" width="22" height="22" rx="3" fill="#2ea043"/>
<rect x="124" y="337" width="22" height="22" rx="3" fill="#2ea043"/>
<rect x="151" y="337" width="22" height="22" rx="3" fill="#2ea043"/>
<rect x="178" y="337" width="22" height="22" rx="3" fill="#2ea043"/>
<rect x="205" y="337" width="22" height="22" rx="3" fill="#2ea043"/>
<rect x="232" y="337" width="22" height="22" rx="3" fill="#d0d7de"/>
<rect x="259" y="337" width="22" height="22" rx="3" fill="#d0d7de"/>
<rect x="286" y="337" width="22" height="22" rx="3" fill="#d0d7de"/>
<rect x="313" y="337" width="22" height="22" rx="3" fill="#d0d7de"/>
<rect x="340" y="337" width="22" height="22" rx="3" fill="#d0d7de"/>
<text x="230" y="385" text-anchor="middle" font-size="12" fill="#57606a">Each square is one percent of the text. <tspan fill="#2ea043" font-weight="600">■</tspan> in English  <tspan fill="#8c959f" font-weight="600">■</tspan> still Japanese</text>
</svg>